<svg id="Layer_1" data-name="Layer 1" xmlns="http://www.w3.org/2000/svg" viewBox="0 0 436.54 189.92"><defs><style>.cls-1{fill:none;}</style></defs><rect class="cls-1" width="436.54" height="189.92"/><path d="M162.09,181.47l2.88,8.21h2.92l-8.41-23.46h-3.42l-8.35,23.46h2.75l2.88-8.21Zm-.81-2.23h-7.12l2.13-6.18.82-2.44c.2-.57.23-.78.64-2.1.48,1.66.82,2.75,1.43,4.54l2.1,6.18ZM178.91,189a19.48,19.48,0,0,0,6,1.05c4.75,0,7.76-2.58,7.76-6.65a6,6,0,0,0-1.86-4.54,14.33,14.33,0,0,0-4.71-2.65c-3.43-1.42-4.51-2.5-4.51-4.47s1.83-3.6,4.44-3.6a11.32,11.32,0,0,1,5,1.26l.54-2.44a17.11,17.11,0,0,0-5.56-1.05c-4.48,0-7.33,2.47-7.33,6.34a5.11,5.11,0,0,0,1.8,4.1c.92.81,1.76,1.26,4.51,2.48a12.64,12.64,0,0,1,3.73,2.1,3.63,3.63,0,0,1,1,2.71c0,2.54-1.86,4.17-4.78,4.17a16.53,16.53,0,0,1-5.73-1.18l-.34,2.37Zm18.52.71H200V172.49h-2.57v17.19Zm1.28-25.13a1.84,1.84,0,1,0,1.84,1.83,1.76,1.76,0,0,0-1.84-1.83Zm20.49,17.23a14.31,14.31,0,0,0-.95-5.87c-1-2.44-3.16-3.76-6.14-3.76-4.65,0-7.5,3.39-7.5,8.95s3.09,8.92,8.21,8.92a10.24,10.24,0,0,0,5.73-1.7l-1-2a8,8,0,0,1-4.72,1.63c-3.39,0-5.12-1.93-5.52-6.17Zm-11.81-2.07c.14-3.42,1.87-5.49,4.62-5.49s4.34,1.93,4.44,5.49Zm16.35,10h2.58V177.44c1.66-2.14,3.32-3.22,5.05-3.22a2.53,2.53,0,0,1,2.54,1.69,10.08,10.08,0,0,1,.41,3.46v10.31h2.58V177.44c1.62-2.17,3.25-3.22,4.95-3.22a2.58,2.58,0,0,1,2.71,1.83,12.88,12.88,0,0,1,.34,3.66v10h2.58v-9.93c0-2.75-.17-4.14-.68-5.23a4.38,4.38,0,0,0-4.24-2.37c-2.24,0-3.83.91-6,3.39a4.27,4.27,0,0,0-4.51-3.39c-2.11,0-3.7.85-5.8,3l-.1-2.71H223.6c.11,1.15.14,2.71.14,5.59v11.6Zm42.79-7.9a14,14,0,0,0-.95-5.87c-1-2.44-3.15-3.76-6.13-3.76-4.65,0-7.5,3.39-7.5,8.95S255,190,260.16,190a10.24,10.24,0,0,0,5.73-1.7l-1-2a8,8,0,0,1-4.72,1.63c-3.39,0-5.12-1.93-5.53-6.17Zm-11.8-2.07c.14-3.42,1.87-5.49,4.61-5.49s4.34,1.93,4.45,5.49Zm16.35,10h2.57V177.44c1.8-2.17,3.6-3.22,5.46-3.22a2.81,2.81,0,0,1,2.95,1.83,11.37,11.37,0,0,1,.38,3.66v10H285v-9.93c0-2.75-.2-4.18-.71-5.23a4.7,4.7,0,0,0-4.47-2.37c-2.38,0-4.14.88-6.24,3.09l-.11-2.75h-2.54c.1,1.15.14,2.71.14,5.59v11.6Zm18.41-.85a11,11,0,0,0,4.92,1.19c3.62,0,6-2.07,6-5.15,0-2.45-1-3.53-4.68-5-2.85-1.16-3.49-1.73-3.49-3.09,0-1.59,1.19-2.54,3.15-2.54a6.81,6.81,0,0,1,3.9,1.25l.78-2a9.89,9.89,0,0,0-4.91-1.29c-3.36,0-5.63,1.93-5.63,4.81,0,2.34,1.18,3.63,4.74,5,2.92,1.15,3.43,1.59,3.43,3.09,0,1.72-1.32,2.91-3.29,2.91a9.31,9.31,0,0,1-4.17-1.15l-.78,2Zm24.14.85h4.65c3.76,0,4.64-.13,6.14-.88a5.6,5.6,0,0,0,3-5.36c0-3.39-1.83-5.32-5.39-5.73,3.32-.61,4.75-2.24,4.75-5.42,0-2.58-1.16-4.51-3.12-5.29-1.5-.62-2.89-.78-6.34-.78h-3.67v23.46Zm2.72-13v-8.31h1.22c2.64,0,3.69.17,4.68.71a4.43,4.43,0,0,1,0,6.85c-.85.51-2.31.75-4.68.75Zm0,10.75v-8.65h1.22a12.35,12.35,0,0,1,4.57.54,3.62,3.62,0,0,1,2.38,3.77c0,1.76-.61,3.05-1.8,3.66-1,.54-2.1.68-5.15.68Zm29.43-15H343.2v12.24c-1.76,2.14-3.52,3.22-5.36,3.22a2.71,2.71,0,0,1-2.84-1.83,11.13,11.13,0,0,1-.38-3.66v-10h-2.57v9.93c0,2.75.2,4.18.71,5.23a4.53,4.53,0,0,0,4.37,2.37c2.27,0,4.14-1,6.14-3.09l.1,2.75h2.54c-.1-1.15-.13-2.71-.13-5.59v-11.6Zm4.61,16.34a11,11,0,0,0,4.92,1.19c3.63,0,6-2.07,6-5.15,0-2.45-1-3.53-4.68-5-2.84-1.16-3.49-1.73-3.49-3.09,0-1.59,1.19-2.54,3.16-2.54a6.75,6.75,0,0,1,3.89,1.25l.78-2a9.89,9.89,0,0,0-4.91-1.29c-3.36,0-5.63,1.93-5.63,4.81,0,2.34,1.19,3.63,4.75,5,2.91,1.15,3.42,1.59,3.42,3.09,0,1.72-1.32,2.91-3.29,2.91a9.31,9.31,0,0,1-4.17-1.15l-.78,2Zm15.57.85h2.57V172.49H366v17.19Zm1.28-25.13a1.84,1.84,0,1,0,1.84,1.83,1.76,1.76,0,0,0-1.84-1.83Zm7.19,25.13H377V177.44c1.8-2.17,3.59-3.22,5.46-3.22a2.83,2.83,0,0,1,2.95,1.83,11.45,11.45,0,0,1,.37,3.66v10h2.58v-9.93c0-2.75-.2-4.18-.71-5.23a4.72,4.72,0,0,0-4.48-2.37c-2.37,0-4.14.88-6.24,3.09l-.1-2.75H374.3c.1,1.15.13,2.71.13,5.59v11.6Zm33-7.9a14.14,14.14,0,0,0-.95-5.87c-1-2.44-3.16-3.76-6.14-3.76-4.65,0-7.49,3.39-7.49,8.95s3.08,8.92,8.2,8.92a10.24,10.24,0,0,0,5.73-1.7l-1-2a7.93,7.93,0,0,1-4.71,1.63c-3.4,0-5.12-1.93-5.53-6.17Zm-11.8-2.07c.13-3.42,1.86-5.49,4.61-5.49s4.34,1.93,4.44,5.49Zm15.05,9.12A11,11,0,0,0,415.6,190c3.63,0,6-2.07,6-5.15,0-2.45-1-3.53-4.67-5-2.85-1.16-3.5-1.73-3.5-3.09,0-1.59,1.19-2.54,3.16-2.54a6.81,6.81,0,0,1,3.9,1.25l.78-2a10,10,0,0,0-4.92-1.29c-3.36,0-5.63,1.93-5.63,4.81,0,2.34,1.19,3.63,4.75,5,2.91,1.15,3.42,1.59,3.42,3.09,0,1.72-1.32,2.91-3.29,2.91a9.31,9.31,0,0,1-4.17-1.15l-.78,2Zm13.77,0a11,11,0,0,0,4.92,1.19c3.62,0,6-2.07,6-5.15,0-2.45-1-3.53-4.68-5-2.85-1.16-3.49-1.73-3.49-3.09,0-1.59,1.19-2.54,3.15-2.54a6.81,6.81,0,0,1,3.9,1.25l.78-2a9.89,9.89,0,0,0-4.91-1.29c-3.36,0-5.63,1.93-5.63,4.81,0,2.34,1.18,3.63,4.74,5,2.92,1.15,3.43,1.59,3.43,3.09,0,1.72-1.32,2.91-3.29,2.91a9.31,9.31,0,0,1-4.17-1.15l-.78,2Z"/><path d="M335.88,129.92a21.8,21.8,0,0,1-11.24-3,22.66,22.66,0,0,1-8.15-8.18,22.54,22.54,0,0,1,0-22.54A23,23,0,0,1,324.64,88a21.63,21.63,0,0,1,11.24-3,20.72,20.72,0,0,1,12.05,3.68,23.11,23.11,0,0,1,8,9.72l-8.05,2.33a14.8,14.8,0,0,0-4.85-5.57A12.46,12.46,0,0,0,335.88,93a13.65,13.65,0,0,0-7.15,1.92,13.82,13.82,0,0,0-5,5.26,14.93,14.93,0,0,0-1.83,7.3,14.76,14.76,0,0,0,1.83,7.27,13.78,13.78,0,0,0,5,5.22,13.55,13.55,0,0,0,7.15,1.92,12.85,12.85,0,0,0,7.11-2,13.19,13.19,0,0,0,4.72-5.47l8.18,2.2a22.17,22.17,0,0,1-8,9.66,21,21,0,0,1-12.05,3.62Z"/><path d="M158.31,16.47,162.88,22V60.5h-4.57v-44ZM200.65.29v49.8L160.14.29h-1.83V6.06L203.4,60.5h1.81V.29Z"/><path d="M120.83.29V37.67c0,25.91-37.13,26-37.13,0V.29H79.12V37.67c0,31.69,46.29,31.61,46.29,0V.29Z"/><path d="M238.12,4.77V.29h42.55V4.77Zm0,27.86h42.55V28.16H238.12v4.47Zm0,27.87h42.55V56H238.12V60.5Z"/><path d="M6.58.29,29.25,35.5v25H24.59V36.37L1.13.38V.29Zm40.77,0L31.12,25.45l2.63,4.08L52.8.38V.29Z"/><path d="M350.5.29H356V.38L313.58,60.5h-5.45v-.09l21.15-30L308.13.38V.29h5.45L332,26.48,350.5.29ZM339.08,36.48l-2.75,3.91L350.5,60.5H356v-.09L339.08,36.48Z"/><polygon points="20.76 93.29 6.92 93.29 6.92 85.42 42.54 85.42 42.54 93.29 29.2 93.29 29.2 129.48 20.76 129.48 20.76 93.29 20.76 93.29"/><path d="M62.49,85.42H82.32a15,15,0,0,1,7.74,2,15.28,15.28,0,0,1,5.48,5.47,14.39,14.39,0,0,1,2,7.4,13.62,13.62,0,0,1-1.16,5.57,14.38,14.38,0,0,1-3.25,4.59,13,13,0,0,1-4.78,2.93l9.82,16H88.55l-9.13-15H71v15h-8.5V85.42Zm19.7,21.71a7,7,0,0,0,5.1-2,6.7,6.7,0,0,0,2.08-5,6.91,6.91,0,0,0-2-5,6.83,6.83,0,0,0-5.07-2H71v14.09Z"/><path d="M132,85.42h13.09l15,44.06h-8.75l-3.08-9.19H128.64l-3.21,9.19h-8.82L132,85.42Zm13.78,27.19-7.23-21.78-7.43,21.78Z"/><polygon points="179.47 85.42 211.63 85.42 211.63 93.29 187.97 93.29 187.97 105.21 211.63 105.21 211.63 112.82 187.97 112.82 187.97 129.48 179.47 129.48 179.47 85.42 179.47 85.42"/><polygon points="231.66 85.42 263.82 85.42 263.82 93.29 240.15 93.29 240.15 105.21 263.82 105.21 263.82 112.82 240.15 112.82 240.15 129.48 231.66 129.48 231.66 85.42 231.66 85.42"/><polygon points="284.4 85.42 292.89 85.42 292.89 129.48 284.4 129.48 284.4 85.42 284.4 85.42"/></svg>